<svg width="128" height="46" viewBox="0 0 128 46" fill="none" xmlns="http://www.w3.org/2000/svg">
<mask id="path-1-outside-1_3_51" maskUnits="userSpaceOnUse" x="-1" y="-1" width="130" height="48" fill="black">
<rect fill="white" x="-1" y="-1" width="130" height="48"/>
<path d="M0.65 9.4C0.65 6.7 1.35 4.66667 2.75 3.3C4.15 1.93333 5.81667 1.25 7.75 1.25C9.71667 1.25 12.3833 1.58333 15.75 2.25C19.1167 2.91667 21.65 3.26667 23.35 3.3C26.1833 2.76666 28.8833 2.11666 31.45 1.35C31.7167 2.21666 31.85 3.3 31.85 4.6C31.85 7.3 31.0667 9.33333 29.5 10.7C27.9667 12.0667 26 12.75 23.6 12.75C23 12.75 22.2 12.7167 21.2 12.65C19.3667 22.2833 18.45 27.6667 18.45 28.8C18.45 32.0333 18.95 34.45 19.95 36.05C17.95 37.55 15.8667 38.3 13.7 38.3C11.5333 38.3 9.98333 37.6833 9.05 36.45C8.11667 35.1833 7.65 33.3167 7.65 30.85C7.65 28.35 8.61667 21.7167 10.55 10.95C6.78333 11.45 3.61667 12.0167 1.05 12.65C0.783333 11.8167 0.65 10.7333 0.65 9.4ZM39.0363 38.3C36.8697 38.3 35.3197 37.6833 34.3863 36.45C33.453 35.1833 32.9863 33.3167 32.9863 30.85C32.9863 28.35 34.0363 21.3 36.1363 9.7L33.4863 4.35C37.253 1.91667 40.6863 0.699999 43.7863 0.699999C46.353 0.699999 47.6363 2.26667 47.6363 5.4C47.6363 6.43333 46.9863 10.2833 45.6863 16.95C44.4197 23.5833 43.7863 27.5333 43.7863 28.8C43.7863 32.0333 44.2863 34.45 45.2863 36.05C43.2863 37.55 41.203 38.3 39.0363 38.3ZM78.0211 29.15L79.2211 28.35C77.0544 24.1833 75.9711 19.6167 75.9711 14.65C75.9711 10.7833 76.9211 7.5 78.8211 4.8C80.7544 2.1 83.4711 0.749999 86.9711 0.749999C88.8044 0.749999 90.3544 1.06667 91.6211 1.7C91.2878 3.56666 90.6878 6.81666 89.8211 11.45C87.9544 21.4167 87.0211 27.1333 87.0211 28.6C87.0211 31.7667 87.5544 34.1333 88.6211 35.7C87.1544 36.6667 85.8044 37.3333 84.5711 37.7C83.3378 38.0667 81.7378 38.25 79.7711 38.25C77.8378 38.25 76.0711 37.8333 74.4711 37C72.9044 36.1667 71.6044 35.0667 70.5711 33.7C69.5711 32.3 68.7211 30.5833 68.0211 28.55C66.7878 24.9833 66.0378 20.45 65.7711 14.95H64.9711C63.4378 21.8833 62.6711 26.7333 62.6711 29.5C62.6711 32.2667 63.1711 34.45 64.1711 36.05C62.1711 37.55 60.0878 38.3 57.9211 38.3C55.7544 38.3 54.2044 37.6833 53.2711 36.45C52.3378 35.1833 51.8711 33.3167 51.8711 30.85C51.8711 28.35 52.9211 21.3 55.0211 9.7L52.3711 4.35C56.1044 1.95 59.4378 0.749999 62.3711 0.749999C65.3044 0.749999 67.5211 1.26667 69.0211 2.3C70.5211 3.3 71.5711 4.78333 72.1711 6.75C72.7711 8.71667 73.2044 10.8 73.4711 13C73.7711 15.1667 74.2711 17.7833 74.9711 20.85C75.7044 23.9167 76.7211 26.6833 78.0211 29.15ZM117.027 27.4L114.477 22.15C118.044 19.7833 121.26 18.6 124.127 18.6C126.527 18.6 127.727 19.95 127.727 22.65C127.727 23.4167 127.26 25.7667 126.327 29.7C125.427 33.6 124.977 36.5833 124.977 38.65C124.977 40.7167 125.427 42.25 126.327 43.25C124.46 44.6167 122.51 45.3 120.477 45.3C118.444 45.3 116.994 44.6333 116.127 43.3C115.294 41.9667 114.877 40.0167 114.877 37.45C113.077 37.9833 111.21 38.25 109.277 38.25C104.744 38.25 101.077 36.85 98.277 34.05C95.5103 31.25 94.127 27.1167 94.127 21.65C94.127 19.3167 94.627 16.95 95.627 14.55C96.627 12.1167 98.0436 9.86667 99.877 7.8C101.71 5.73333 104.094 4.05 107.027 2.75C109.994 1.41666 113.044 0.749999 116.177 0.749999C119.344 0.749999 121.81 1.33333 123.577 2.5C125.377 3.66666 126.277 5.28333 126.277 7.35C126.277 9.41667 125.594 11.0333 124.227 12.2C122.894 13.3333 121.36 13.9 119.627 13.9C117.894 13.9 116.327 13.5333 114.927 12.8C113.56 12.0333 112.46 10.95 111.627 9.55C109.827 10.4167 108.277 12.1167 106.977 14.65C105.677 17.1833 105.027 19.8333 105.027 22.6C105.027 25.3667 105.56 27.45 106.627 28.85C107.727 30.2167 109.094 30.9 110.727 30.9C113.094 30.9 115.194 29.7333 117.027 27.4Z"/>
</mask>
<path d="M0.65 9.4C0.65 6.7 1.35 4.66667 2.75 3.3C4.15 1.93333 5.81667 1.25 7.75 1.25C9.71667 1.25 12.3833 1.58333 15.75 2.25C19.1167 2.91667 21.65 3.26667 23.35 3.3C26.1833 2.76666 28.8833 2.11666 31.45 1.35C31.7167 2.21666 31.85 3.3 31.85 4.6C31.85 7.3 31.0667 9.33333 29.5 10.7C27.9667 12.0667 26 12.75 23.6 12.75C23 12.75 22.2 12.7167 21.2 12.65C19.3667 22.2833 18.45 27.6667 18.45 28.8C18.45 32.0333 18.95 34.45 19.95 36.05C17.95 37.55 15.8667 38.3 13.7 38.3C11.5333 38.3 9.98333 37.6833 9.05 36.45C8.11667 35.1833 7.65 33.3167 7.65 30.85C7.65 28.35 8.61667 21.7167 10.55 10.95C6.78333 11.45 3.61667 12.0167 1.05 12.65C0.783333 11.8167 0.65 10.7333 0.65 9.4ZM39.0363 38.3C36.8697 38.3 35.3197 37.6833 34.3863 36.45C33.453 35.1833 32.9863 33.3167 32.9863 30.85C32.9863 28.35 34.0363 21.3 36.1363 9.7L33.4863 4.35C37.253 1.91667 40.6863 0.699999 43.7863 0.699999C46.353 0.699999 47.6363 2.26667 47.6363 5.4C47.6363 6.43333 46.9863 10.2833 45.6863 16.95C44.4197 23.5833 43.7863 27.5333 43.7863 28.8C43.7863 32.0333 44.2863 34.45 45.2863 36.05C43.2863 37.55 41.203 38.3 39.0363 38.3ZM78.0211 29.15L79.2211 28.35C77.0544 24.1833 75.9711 19.6167 75.9711 14.65C75.9711 10.7833 76.9211 7.5 78.8211 4.8C80.7544 2.1 83.4711 0.749999 86.9711 0.749999C88.8044 0.749999 90.3544 1.06667 91.6211 1.7C91.2878 3.56666 90.6878 6.81666 89.8211 11.45C87.9544 21.4167 87.0211 27.1333 87.0211 28.6C87.0211 31.7667 87.5544 34.1333 88.6211 35.7C87.1544 36.6667 85.8044 37.3333 84.5711 37.7C83.3378 38.0667 81.7378 38.25 79.7711 38.25C77.8378 38.25 76.0711 37.8333 74.4711 37C72.9044 36.1667 71.6044 35.0667 70.5711 33.7C69.5711 32.3 68.7211 30.5833 68.0211 28.55C66.7878 24.9833 66.0378 20.45 65.7711 14.95H64.9711C63.4378 21.8833 62.6711 26.7333 62.6711 29.5C62.6711 32.2667 63.1711 34.45 64.1711 36.05C62.1711 37.55 60.0878 38.3 57.9211 38.3C55.7544 38.3 54.2044 37.6833 53.2711 36.45C52.3378 35.1833 51.8711 33.3167 51.8711 30.85C51.8711 28.35 52.9211 21.3 55.0211 9.7L52.3711 4.35C56.1044 1.95 59.4378 0.749999 62.3711 0.749999C65.3044 0.749999 67.5211 1.26667 69.0211 2.3C70.5211 3.3 71.5711 4.78333 72.1711 6.75C72.7711 8.71667 73.2044 10.8 73.4711 13C73.7711 15.1667 74.2711 17.7833 74.9711 20.85C75.7044 23.9167 76.7211 26.6833 78.0211 29.15ZM117.027 27.4L114.477 22.15C118.044 19.7833 121.26 18.6 124.127 18.6C126.527 18.6 127.727 19.95 127.727 22.65C127.727 23.4167 127.26 25.7667 126.327 29.7C125.427 33.6 124.977 36.5833 124.977 38.65C124.977 40.7167 125.427 42.25 126.327 43.25C124.46 44.6167 122.51 45.3 120.477 45.3C118.444 45.3 116.994 44.6333 116.127 43.3C115.294 41.9667 114.877 40.0167 114.877 37.45C113.077 37.9833 111.21 38.25 109.277 38.25C104.744 38.25 101.077 36.85 98.277 34.05C95.5103 31.25 94.127 27.1167 94.127 21.65C94.127 19.3167 94.627 16.95 95.627 14.55C96.627 12.1167 98.0436 9.86667 99.877 7.8C101.71 5.73333 104.094 4.05 107.027 2.75C109.994 1.41666 113.044 0.749999 116.177 0.749999C119.344 0.749999 121.81 1.33333 123.577 2.5C125.377 3.66666 126.277 5.28333 126.277 7.35C126.277 9.41667 125.594 11.0333 124.227 12.2C122.894 13.3333 121.36 13.9 119.627 13.9C117.894 13.9 116.327 13.5333 114.927 12.8C113.56 12.0333 112.46 10.95 111.627 9.55C109.827 10.4167 108.277 12.1167 106.977 14.65C105.677 17.1833 105.027 19.8333 105.027 22.6C105.027 25.3667 105.56 27.45 106.627 28.85C107.727 30.2167 109.094 30.9 110.727 30.9C113.094 30.9 115.194 29.7333 117.027 27.4Z" fill="black"/>
<path d="M2.75 3.3L3.44854 4.01557L2.75 3.3ZM15.75 2.25L15.9443 1.26904H15.9442L15.75 2.25ZM23.35 3.3L23.3304 4.29981L23.4336 4.30183L23.535 4.28274L23.35 3.3ZM31.45 1.35L32.4058 1.05591L32.1141 0.10797L31.1638 0.391829L31.45 1.35ZM29.5 10.7L28.8426 9.94639L28.8346 9.95349L29.5 10.7ZM21.2 12.65L21.2665 11.6522L20.3832 11.5933L20.2176 12.463L21.2 12.65ZM19.95 36.05L20.55 36.85L21.2848 36.2989L20.798 35.52L19.95 36.05ZM9.05 36.45L8.24488 37.0432L8.25259 37.0534L9.05 36.45ZM10.55 10.95L11.5343 11.1267L11.7764 9.77843L10.4184 9.95869L10.55 10.95ZM1.05 12.65L0.0975759 12.9548L0.382363 13.8447L1.28957 13.6209L1.05 12.65ZM1.65 9.4C1.65 6.86454 2.30525 5.13163 3.44854 4.01557L2.05146 2.58442C0.394745 4.2017 -0.35 6.53546 -0.35 9.4H1.65ZM3.44854 4.01557C4.66424 2.82881 6.08119 2.25 7.75 2.25V0.249998C5.55215 0.249998 3.63576 1.03785 2.05146 2.58442L3.44854 4.01557ZM7.75 2.25C9.62064 2.25 12.2133 2.56909 15.5558 3.23095L15.9442 1.26904C12.5533 0.597574 9.81269 0.249998 7.75 0.249998V2.25ZM15.5558 3.23095C18.9343 3.89998 21.5387 4.26468 23.3304 4.29981L23.3696 2.30019C21.7613 2.26866 19.299 1.93335 15.9443 1.26904L15.5558 3.23095ZM23.535 4.28274C26.3999 3.74346 29.1338 3.08549 31.7362 2.30816L31.1638 0.391829C28.6328 1.14783 25.9668 1.78987 23.165 2.31726L23.535 4.28274ZM30.4942 1.64408C30.7219 2.38403 30.85 3.36035 30.85 4.6H32.85C32.85 3.23965 32.7114 2.0493 32.4058 1.05591L30.4942 1.64408ZM30.85 4.6C30.85 7.10311 30.1307 8.82277 28.8426 9.94643L30.1574 11.4536C32.0026 9.84389 32.85 7.49689 32.85 4.6H30.85ZM28.8346 9.95349C27.5148 11.1299 25.7985 11.75 23.6 11.75V13.75C26.2015 13.75 28.4186 13.0034 30.1654 11.4465L28.8346 9.95349ZM23.6 11.75C23.0319 11.75 22.2569 11.7182 21.2665 11.6522L21.1335 13.6478C22.1431 13.7151 22.9681 13.75 23.6 13.75V11.75ZM20.2176 12.463C19.3005 17.2819 18.6116 21.0435 18.1517 23.7446C17.9218 25.0947 17.7481 26.1856 17.6316 27.0138C17.5184 27.8184 17.45 28.4356 17.45 28.8H19.45C19.45 28.5977 19.4961 28.117 19.6121 27.2924C19.7248 26.4915 19.8949 25.422 20.1233 24.0804C20.58 21.3982 21.2661 17.6514 22.1824 12.837L20.2176 12.463ZM17.45 28.8C17.45 32.1027 17.9546 34.7442 19.102 36.58L20.798 35.52C19.9454 34.1558 19.45 31.9639 19.45 28.8H17.45ZM19.35 35.25C17.4954 36.641 15.618 37.3 13.7 37.3V39.3C16.1153 39.3 18.4046 38.459 20.55 36.85L19.35 35.25ZM13.7 37.3C11.7131 37.3 10.5236 36.74 9.84741 35.8466L8.25259 37.0534C9.44311 38.6266 11.3536 39.3 13.7 39.3V37.3ZM9.85506 35.8568C9.10203 34.8348 8.65 33.2161 8.65 30.85H6.65C6.65 33.4172 7.13131 35.5318 8.24494 37.0432L9.85506 35.8568ZM8.65 30.85C8.65 28.4606 9.59404 21.9317 11.5343 11.1267L9.56574 10.7733C7.63929 21.5016 6.65 28.2394 6.65 30.85H8.65ZM10.4184 9.95869C6.62965 10.4616 3.42434 11.0341 0.810432 11.6791L1.28957 13.6209C3.80899 12.9992 6.93702 12.4384 10.6816 11.9413L10.4184 9.95869ZM2.00242 12.3452C1.77922 11.6477 1.65 10.6781 1.65 9.4H-0.35C-0.35 10.7885 -0.212555 11.9856 0.0975759 12.9548L2.00242 12.3452ZM34.3863 36.45L33.5812 37.0432L33.5889 37.0534L34.3863 36.45ZM36.1363 9.7L37.1203 9.87814L37.1793 9.5526L37.0324 9.25614L36.1363 9.7ZM33.4863 4.35L32.9437 3.51003L32.1942 3.99424L32.5902 4.79386L33.4863 4.35ZM45.6863 16.95L44.7048 16.7586L44.7041 16.7624L45.6863 16.95ZM45.2863 36.05L45.8863 36.85L46.6211 36.2989L46.1343 35.52L45.2863 36.05ZM39.0363 37.3C37.0494 37.3 35.8599 36.74 35.1837 35.8466L33.5889 37.0534C34.7794 38.6266 36.6899 39.3 39.0363 39.3V37.3ZM35.1914 35.8568C34.4384 34.8348 33.9863 33.2161 33.9863 30.85H31.9863C31.9863 33.4172 32.4676 35.5318 33.5813 37.0432L35.1914 35.8568ZM33.9863 30.85C33.9863 29.6854 34.2365 27.3694 34.7629 23.8348C35.2857 20.3246 36.0712 15.6736 37.1203 9.87814L35.1523 9.52186C34.1015 15.3264 33.3119 20.0004 32.7847 23.5402C32.2612 27.0556 31.9863 29.5146 31.9863 30.85H33.9863ZM37.0324 9.25614L34.3824 3.90614L32.5902 4.79386L35.2402 10.1439L37.0324 9.25614ZM34.029 5.18997C37.7024 2.81685 40.9467 1.7 43.7863 1.7V-0.3C40.4259 -0.3 36.8036 1.01648 32.9437 3.51003L34.029 5.18997ZM43.7863 1.7C44.857 1.7 45.4976 2.0171 45.9002 2.50868C46.3342 3.03846 46.6363 3.9444 46.6363 5.4H48.6363C48.6363 3.72227 48.2968 2.27821 47.4474 1.24131C46.5668 0.166233 45.2823 -0.3 43.7863 -0.3V1.7ZM46.6363 5.4C46.6363 5.81467 46.4925 6.94314 46.1628 8.89602C45.8398 10.8088 45.3542 13.4285 44.7048 16.7586L46.6678 17.1414C47.3185 13.8049 47.8078 11.1662 48.1349 9.22897C48.4552 7.33186 48.6363 6.01866 48.6363 5.4H46.6363ZM44.7041 16.7624C44.07 20.0832 43.5929 22.74 43.2739 24.7292C42.9599 26.6878 42.7863 28.0727 42.7863 28.8H44.7863C44.7863 28.2606 44.9294 27.0372 45.2487 25.0458C45.5631 23.085 46.036 20.4501 46.6686 17.1376L44.7041 16.7624ZM42.7863 28.8C42.7863 32.1027 43.291 34.7442 44.4383 36.58L46.1343 35.52C45.2817 34.1558 44.7863 31.9639 44.7863 28.8H42.7863ZM44.6863 35.25C42.8317 36.641 40.9544 37.3 39.0363 37.3V39.3C41.4516 39.3 43.741 38.459 45.8863 36.85L44.6863 35.25ZM78.0211 29.15L77.1364 29.6162L77.6533 30.597L78.5758 29.9821L78.0211 29.15ZM79.2211 28.35L79.7758 29.182L80.5221 28.6845L80.1083 27.8886L79.2211 28.35ZM78.8211 4.8L78.008 4.21779L78.0033 4.2245L78.8211 4.8ZM91.6211 1.7L92.6055 1.87579L92.7369 1.13988L92.0683 0.805572L91.6211 1.7ZM89.8211 11.45L90.804 11.6341L90.804 11.6339L89.8211 11.45ZM88.6211 35.7L89.1714 36.535L90.019 35.9763L89.4477 35.1372L88.6211 35.7ZM84.5711 37.7L84.8561 38.6585L84.5711 37.7ZM74.4711 37L74.0015 37.8829L74.0092 37.8869L74.4711 37ZM70.5711 33.7L69.7574 34.2812L69.7653 34.2923L69.7734 34.3031L70.5711 33.7ZM68.0211 28.55L68.9666 28.2245L68.9662 28.2232L68.0211 28.55ZM65.7711 14.95L66.7699 14.9016L66.7238 13.95H65.7711V14.95ZM64.9711 14.95V13.95H64.1681L63.9947 14.7341L64.9711 14.95ZM64.1711 36.05L64.7711 36.85L65.5059 36.2989L65.0191 35.52L64.1711 36.05ZM53.2711 36.45L52.466 37.0432L52.4737 37.0534L53.2711 36.45ZM55.0211 9.7L56.0051 9.87814L56.064 9.5526L55.9172 9.25614L55.0211 9.7ZM52.3711 4.35L51.8303 3.50882L51.078 3.99244L51.475 4.79386L52.3711 4.35ZM69.0211 2.3L68.4538 3.12351L68.4601 3.12783L68.4664 3.13205L69.0211 2.3ZM73.4711 13L72.4784 13.1203L72.4794 13.1287L72.4805 13.1372L73.4711 13ZM74.9711 20.85L73.9961 21.0725L73.9985 21.0826L74.9711 20.85ZM78.5758 29.9821L79.7758 29.182L78.6664 27.5179L77.4664 28.3179L78.5758 29.9821ZM80.1083 27.8886C78.02 23.8727 76.9711 19.4656 76.9711 14.65H74.9711C74.9711 19.7678 76.0888 24.494 78.3339 28.8114L80.1083 27.8886ZM76.9711 14.65C76.9711 10.9531 77.8768 7.87959 79.6389 5.37549L78.0033 4.2245C75.9654 7.1204 74.9711 10.6136 74.9711 14.65H76.9711ZM79.6341 5.38218C81.3681 2.96066 83.7731 1.75 86.9711 1.75V-0.250001C83.1691 -0.250001 80.1408 1.23933 78.008 4.21781L79.6341 5.38218ZM86.9711 1.75C88.6933 1.75 90.0808 2.04789 91.1739 2.59443L92.0683 0.805572C90.6281 0.0854425 88.9155 -0.250001 86.9711 -0.250001V1.75ZM90.6367 1.52421C90.3041 3.38638 89.7048 6.63271 88.8381 11.2661L90.804 11.6339C91.6707 7.00062 92.2714 3.74695 92.6055 1.87579L90.6367 1.52421ZM88.8382 11.2659C87.9043 16.2521 87.2027 20.1818 86.7342 23.0514C86.2723 25.8803 86.0211 27.7673 86.0211 28.6H88.0211C88.0211 27.966 88.2366 26.2614 88.708 23.3736C89.1729 20.5266 89.8712 16.6145 90.804 11.6341L88.8382 11.2659ZM86.0211 28.6C86.0211 31.8463 86.5619 34.4524 87.7945 36.2628L89.4477 35.1372C88.547 33.8143 88.0211 31.6871 88.0211 28.6H86.0211ZM88.0708 34.865C86.6583 35.796 85.3982 36.4108 84.2861 36.7415L84.8561 38.6585C86.2107 38.2558 87.6505 37.5374 89.1714 36.535L88.0708 34.865ZM84.2861 36.7415C83.1804 37.0702 81.6865 37.25 79.7711 37.25V39.25C81.789 39.25 83.4951 39.0632 84.8561 38.6585L84.2861 36.7415ZM79.7711 37.25C77.9868 37.25 76.3802 36.8668 74.933 36.1131L74.0092 37.8869C75.7619 38.7998 77.6888 39.25 79.7711 39.25V37.25ZM74.9407 36.1171C73.4977 35.3496 72.3112 34.3434 71.3688 33.0969L69.7734 34.3031C70.8976 35.79 72.3111 36.9837 74.0015 37.8829L74.9407 36.1171ZM71.3848 33.1188C70.4528 31.8139 69.6427 30.1884 68.9666 28.2245L67.0756 28.8755C67.7995 30.9783 68.6894 32.7861 69.7574 34.2812L71.3848 33.1188ZM68.9662 28.2232C67.7746 24.7771 67.0339 20.346 66.7699 14.9016L64.7723 14.9984C65.0416 20.554 65.801 25.1895 67.076 28.8768L68.9662 28.2232ZM65.7711 13.95H64.9711V15.95H65.7711V13.95ZM63.9947 14.7341C62.4626 21.6618 61.6711 26.6105 61.6711 29.5H63.6711C63.6711 26.8561 64.4129 22.1049 65.9475 15.1659L63.9947 14.7341ZM61.6711 29.5C61.6711 32.3719 62.1877 34.7634 63.3231 36.58L65.0191 35.52C64.1545 34.1366 63.6711 32.1614 63.6711 29.5H61.6711ZM63.5711 35.25C61.7165 36.641 59.8391 37.3 57.9211 37.3V39.3C60.3364 39.3 62.6257 38.459 64.7711 36.85L63.5711 35.25ZM57.9211 37.3C55.9342 37.3 54.7447 36.74 54.0685 35.8466L52.4737 37.0534C53.6642 38.6266 55.5747 39.3 57.9211 39.3V37.3ZM54.0761 35.8568C53.3231 34.8348 52.8711 33.2161 52.8711 30.85H50.8711C50.8711 33.4172 51.3524 35.5318 52.466 37.0432L54.0761 35.8568ZM52.8711 30.85C52.8711 29.6854 53.1213 27.3694 53.6477 23.8348C54.1705 20.3246 54.9559 15.6736 56.0051 9.87814L54.0371 9.52186C52.9863 15.3264 52.1967 20.0004 51.6695 23.5402C51.1459 27.0556 50.8711 29.5146 50.8711 30.85H52.8711ZM55.9172 9.25614L53.2672 3.90614L51.475 4.79386L54.125 10.1439L55.9172 9.25614ZM52.9118 5.19118C56.561 2.8453 59.7042 1.75 62.3711 1.75V-0.250001C59.1713 -0.250001 55.6479 1.05469 51.8303 3.50882L52.9118 5.19118ZM62.3711 1.75C65.215 1.75 67.1943 2.25588 68.4538 3.12351L69.5884 1.47649C67.8479 0.277448 65.3939 -0.250001 62.3711 -0.250001V1.75ZM68.4664 3.13205C69.7473 3.98599 70.6721 5.26342 71.2146 7.04181L73.1276 6.45819C72.4701 4.30324 71.2949 2.614 69.5758 1.46795L68.4664 3.13205ZM71.2146 7.04181C71.7963 8.94835 72.2182 10.974 72.4784 13.1203L74.4638 12.8797C74.1907 10.626 73.7459 8.48498 73.1276 6.45819L71.2146 7.04181ZM72.4805 13.1372C72.7858 15.3419 73.2923 17.9887 73.9962 21.0725L75.946 20.6275C75.2499 17.5779 74.7564 14.9914 74.4616 12.8628L72.4805 13.1372ZM73.9985 21.0826C74.7488 24.2201 75.7928 27.0668 77.1364 29.6162L78.9058 28.6838C77.6494 26.2999 76.6601 23.6132 75.9437 20.6174L73.9985 21.0826ZM117.027 27.4L117.813 28.0178L118.2 27.5259L117.926 26.9631L117.027 27.4ZM114.477 22.15L113.924 21.3168L113.195 21.8003L113.577 22.5869L114.477 22.15ZM126.327 29.7L125.354 29.4691L125.353 29.4751L126.327 29.7ZM126.327 43.25L126.918 44.0569L127.81 43.4033L127.07 42.581L126.327 43.25ZM116.127 43.3L115.279 43.83L115.284 43.8375L115.289 43.845L116.127 43.3ZM114.877 37.45H115.877V36.1107L114.593 36.4912L114.877 37.45ZM98.277 34.05L97.5656 34.7529L97.5698 34.7571L98.277 34.05ZM95.627 14.55L96.55 14.9346L96.5519 14.9301L95.627 14.55ZM99.877 7.8L99.1289 7.13638L99.877 7.8ZM107.027 2.75L107.432 3.66425L107.437 3.66211L107.027 2.75ZM123.577 2.5L123.026 3.33449L123.033 3.33915L123.577 2.5ZM124.227 12.2L124.875 12.9619L124.876 12.9606L124.227 12.2ZM114.927 12.8L114.438 13.6721L114.45 13.6792L114.463 13.6858L114.927 12.8ZM111.627 9.55L112.486 9.03852L112.018 8.25185L111.193 8.649L111.627 9.55ZM106.977 14.65L106.087 14.1934V14.1934L106.977 14.65ZM106.627 28.85L105.832 29.456L105.84 29.4666L105.848 29.477L106.627 28.85ZM117.926 26.9631L115.376 21.7131L113.577 22.5869L116.127 27.8369L117.926 26.9631ZM115.03 22.9832C118.509 20.6749 121.532 19.6 124.127 19.6V17.6C120.989 17.6 117.579 18.8917 113.924 21.3168L115.03 22.9832ZM124.127 19.6C125.14 19.6 125.726 19.8796 126.08 20.2769C126.453 20.6966 126.727 21.427 126.727 22.65H128.727C128.727 21.173 128.401 19.8784 127.574 18.9481C126.727 17.9954 125.514 17.6 124.127 17.6V19.6ZM126.727 22.65C126.727 22.9176 126.633 23.5983 126.396 24.7927C126.166 25.9503 125.819 27.5075 125.354 29.4691L127.3 29.9309C127.768 27.9591 128.121 26.3747 128.358 25.1823C128.587 24.0267 128.727 23.1491 128.727 22.65H126.727ZM125.353 29.4751C124.448 33.3938 123.977 36.4667 123.977 38.65H125.977C125.977 36.7 126.406 33.8062 127.301 29.9249L125.353 29.4751ZM123.977 38.65C123.977 40.836 124.449 42.6586 125.584 43.919L127.07 42.581C126.405 41.8414 125.977 40.5973 125.977 38.65H123.977ZM125.736 42.4431C124.016 43.7023 122.269 44.3 120.477 44.3V46.3C122.751 46.3 124.904 45.531 126.918 44.0569L125.736 42.4431ZM120.477 44.3C118.676 44.3 117.596 43.7255 116.965 42.755L115.289 43.845C116.391 45.5412 118.212 46.3 120.477 46.3V44.3ZM116.975 42.77C116.285 41.6667 115.877 39.936 115.877 37.45H113.877C113.877 40.0973 114.302 42.2666 115.279 43.83L116.975 42.77ZM114.593 36.4912C112.888 36.9964 111.117 37.25 109.277 37.25V39.25C111.304 39.25 113.266 38.9703 115.161 38.4088L114.593 36.4912ZM109.277 37.25C104.967 37.25 101.569 35.9278 98.9841 33.3429L97.5698 34.7571C100.585 37.7722 104.52 39.25 109.277 39.25V37.25ZM98.9883 33.3471C96.4686 30.7971 95.127 26.9575 95.127 21.65H93.127C93.127 27.2759 94.5519 31.7029 97.5656 34.7529L98.9883 33.3471ZM95.127 21.65C95.127 19.463 95.595 17.2267 96.55 14.9346L94.7039 14.1654C93.6589 16.6733 93.127 19.1703 93.127 21.65H95.127ZM96.5519 14.9301C97.5072 12.6056 98.8624 10.4506 100.625 8.46361L99.1289 7.13638C97.2249 9.28272 95.7468 11.6277 94.702 14.1699L96.5519 14.9301ZM100.625 8.46361C102.349 6.52002 104.609 4.91552 107.432 3.66424L106.622 1.83576C103.579 3.18448 101.071 4.94664 99.1289 7.13638L100.625 8.46361ZM107.437 3.66211C110.28 2.38445 113.19 1.75 116.177 1.75V-0.250001C112.897 -0.250001 109.708 0.448876 106.617 1.83788L107.437 3.66211ZM116.177 1.75C119.239 1.75 121.485 2.31693 123.026 3.33446L124.128 1.66553C122.136 0.349732 119.448 -0.250001 116.177 -0.250001V1.75ZM123.033 3.33915C124.562 4.3299 125.277 5.63747 125.277 7.35H127.277C127.277 4.92919 126.192 3.00344 124.121 1.66084L123.033 3.33915ZM125.277 7.35C125.277 9.17294 124.687 10.4924 123.578 11.4394L124.876 12.9606C126.5 11.5743 127.277 9.66039 127.277 7.35H125.277ZM123.579 11.4381C122.425 12.4193 121.121 12.9 119.627 12.9V14.9C121.6 14.9 123.362 14.2473 124.875 12.9619L123.579 11.4381ZM119.627 12.9C118.039 12.9 116.634 12.5654 115.391 11.9142L114.463 13.6858C116.02 14.5012 117.748 14.9 119.627 14.9V12.9ZM115.416 11.9279C114.209 11.2504 113.234 10.2942 112.486 9.03852L110.768 10.0615C111.687 11.6058 112.912 12.8163 114.438 13.6721L115.416 11.9279ZM111.193 8.649C109.129 9.64292 107.446 11.5463 106.087 14.1934L107.867 15.1066C109.108 12.6871 110.525 11.1904 112.061 10.451L111.193 8.649ZM106.087 14.1934C104.717 16.8638 104.027 19.6698 104.027 22.6H106.027C106.027 19.9968 106.637 17.5029 107.867 15.1066L106.087 14.1934ZM104.027 22.6C104.027 25.4686 104.575 27.8074 105.832 29.456L107.422 28.244C106.545 27.0926 106.027 25.2647 106.027 22.6H104.027ZM105.848 29.477C107.122 31.0595 108.766 31.9 110.727 31.9V29.9C109.421 29.9 108.332 29.3739 107.406 28.223L105.848 29.477ZM110.727 31.9C113.477 31.9 115.843 30.5251 117.813 28.0178L116.241 26.7822C114.544 28.9415 112.71 29.9 110.727 29.9V31.9Z" fill="black" mask="url(#path-1-outside-1_3_51)"/>
</svg>
